<!DOCTYPE svg PUBLIC "-//W3C//DTD SVG 1.1//EN" "http://www.w3.org/Graphics/SVG/1.1/DTD/svg11.dtd">
<!-- Uploaded to: SVG Repo, www.svgrepo.com, Transformed by: SVG Repo Mixer Tools -->
<svg fill="#000000" width="800px" height="800px" viewBox="-2.4 -2.4 28.80 28.80" id="copy" data-name="Flat Color" xmlns="http://www.w3.org/2000/svg" class="icon flat-color" stroke="#000000" stroke-width="0.072" transform="matrix(1, 0, 0, 1, 0, 0)rotate(0)">
<g id="SVGRepo_bgCarrier" stroke-width="0"/>
<g id="SVGRepo_tracerCarrier" stroke-linecap="round" stroke-linejoin="round" stroke="#CCCCCC" stroke-width="0.4800000000000001"/>
<g id="SVGRepo_iconCarrier">
<path id="secondary" d="M16,22H6a2,2,0,0,1-2-2V6A1,1,0,0,1,6,6V20H16a1,1,0,0,1,0,2Z" style="fill: #188ea0;"/>
<path id="primary" d="M19.71,5.29l-3-3A1.05,1.05,0,0,0,16,2H9A1,1,0,0,0,8,3V17a1,1,0,0,0,1,1H19a1,1,0,0,0,1-1V6A1,1,0,0,0,19.71,5.29Z" style="fill: #4380f9;"/>
</g>
</svg>